<?xml version="1.0" encoding="UTF-8" standalone="no"?>
<!-- Created with Inkscape (http://www.inkscape.org/) -->

<svg
   xmlns:dc="http://purl.org/dc/elements/1.1/"
   xmlns:cc="http://creativecommons.org/ns#"
   xmlns:rdf="http://www.w3.org/1999/02/22-rdf-syntax-ns#"
   xmlns:svg="http://www.w3.org/2000/svg"
   xmlns="http://www.w3.org/2000/svg"
   xmlns:xlink="http://www.w3.org/1999/xlink"
   xmlns:sodipodi="http://sodipodi.sourceforge.net/DTD/sodipodi-0.dtd"
   xmlns:inkscape="http://www.inkscape.org/namespaces/inkscape"
   width="772"
   height="250"
   id="svg2"
   version="1.1"
   inkscape:version="0.92.4 (5da689c313, 2019-01-14)"
   sodipodi:docname="banner.svg"
   inkscape:export-filename="/tmp/banner-772x250.png"
   inkscape:export-xdpi="90"
   inkscape:export-ydpi="90">
  <sodipodi:namedview
     id="base"
     pagecolor="#ffffff"
     bordercolor="#666666"
     borderopacity="1.0"
     inkscape:pageopacity="0.0"
     inkscape:pageshadow="2"
     inkscape:zoom="1.979899"
     inkscape:cx="398.9077"
     inkscape:cy="46.342416"
     inkscape:document-units="px"
     inkscape:current-layer="layer1"
     showgrid="false"
     inkscape:window-width="2558"
     inkscape:window-height="1399"
     inkscape:window-x="0"
     inkscape:window-y="39"
     inkscape:window-maximized="1" />
  <defs
     id="defs4">
    <linearGradient
       id="linearGradient4136">
      <stop
         style="stop-color:#5287df;stop-opacity:1;"
         offset="0"
         id="stop4138" />
      <stop
         style="stop-color:#60b7fe;stop-opacity:1;"
         offset="1"
         id="stop4140" />
    </linearGradient>
    <marker
       style="overflow:visible"
       id="TriangleOutL"
       refX="0.0"
       refY="0.0"
       orient="auto"
       inkscape:stockid="TriangleOutL">
      <path
         transform="scale(0.8)"
         style="fill-rule:evenodd;stroke:#000000;stroke-width:1.0pt"
         d="M 5.77,0.0 L -2.88,5.0 L -2.88,-5.0 L 5.77,0.0 z "
         id="path4347" />
    </marker>
    <marker
       style="overflow:visible;"
       id="Arrow1Lend"
       refX="0.0"
       refY="0.0"
       orient="auto"
       inkscape:stockid="Arrow1Lend">
      <path
         transform="scale(0.8) rotate(180) translate(12.5,0)"
         style="fill-rule:evenodd;stroke:#000000;stroke-width:1.0pt;"
         d="M 0.0,0.0 L 5.0,-5.0 L -12.5,0.0 L 5.0,5.0 L 0.0,0.0 z "
         id="path4208" />
    </marker>
    <marker
       style="overflow:visible"
       id="Arrow1Mstart"
       refX="0.0"
       refY="0.0"
       orient="auto"
       inkscape:stockid="Arrow1Mstart">
      <path
         transform="scale(0.4) translate(10,0)"
         style="fill-rule:evenodd;stroke:#000000;stroke-width:1.0pt"
         d="M 0.0,0.0 L 5.0,-5.0 L -12.5,0.0 L 5.0,5.0 L 0.0,0.0 z "
         id="path4211" />
    </marker>
    <marker
       style="overflow:visible"
       id="TriangleOutLz"
       refX="0.0"
       refY="0.0"
       orient="auto"
       inkscape:stockid="TriangleOutLz">
      <path
         transform="scale(0.8)"
         style="stroke:#ffffff;stroke-width:1.0pt;fill:#ffffff;fill-rule:evenodd"
         d="M 5.77,0.0 L -2.88,5.0 L -2.88,-5.0 L 5.77,0.0 z "
         id="path5396" />
    </marker>
    <linearGradient
       inkscape:collect="always"
       xlink:href="#linearGradient4136"
       id="linearGradient4676"
       x1="0"
       y1="927.36218"
       x2="772"
       y2="927.36218"
       gradientUnits="userSpaceOnUse" />
  </defs>
  <metadata
     id="metadata7">
    <rdf:RDF>
      <cc:Work
         rdf:about="">
        <dc:format>image/svg+xml</dc:format>
        <dc:type
           rdf:resource="http://purl.org/dc/dcmitype/StillImage" />
        <dc:title></dc:title>
      </cc:Work>
    </rdf:RDF>
  </metadata>
  <g
     transform="translate(0,-802.36218)"
     id="layer1"
     inkscape:groupmode="layer"
     inkscape:label="Layer 1">
    <g
       id="g4749">
      <path
         style="font-size:medium;font-style:normal;font-variant:normal;font-weight:normal;font-stretch:normal;text-indent:0;text-align:start;text-decoration:none;line-height:normal;letter-spacing:normal;word-spacing:normal;text-transform:none;direction:ltr;block-progression:tb;writing-mode:lr-tb;text-anchor:start;baseline-shift:baseline;opacity:0.92000002;color:#000000;fill:#ffffff;fill-opacity:1;stroke:none;stroke-width:1.09387398;marker:none;visibility:visible;display:inline;overflow:visible;enable-background:accumulate;font-family:Sans;-inkscape-font-specification:Sans"
         d="m 475.6875,895.75 -0.0312,0 -3.0625,0.1875 -0.0312,0 -0.90625,0.0937 0.0937,1.09375 0.90625,-0.0937 3.0625,-0.1875 3.0625,-0.0937 0.0312,0 1.625,0 0,-1.09375 -1.65625,0 z m 9.125,0.5625 -0.0312,0.53125 2.90625,0.1875 0.0312,0 2.84375,0.25 0.0312,0 2.78125,0.375 0.0312,0 0.0312,0 0.15625,-1.09375 -0.0312,0 -0.0312,0 -2.84375,-0.34375 -2.875,-0.28125 -0.0312,0 -2.9375,-0.1875 -0.0312,0 z m -18.15625,0.28125 -0.0312,0 -2.84375,0.46875 -2.75,0.53125 -0.0312,0 -2.375,0.5625 0.25,1.0625 2.375,-0.5625 2.71875,-0.53125 0.0312,0 2.78125,-0.46875 0.0312,0 0.59375,-0.0625 -0.125,-1.09375 z m 31.09375,1.75 1.125,0.21875 0.0312,0 2.65625,0.5625 0.0312,0 2.625,0.65625 2,0.53125 0.28125,-1.03125 -2,-0.5625 -0.0312,0 -2.65625,-0.65625 -2.6875,-0.5625 -0.0312,0 -1.15625,-0.21875 z m -44.625,1.375 -2.46875,0.875 -0.0312,0 -2.40625,0.90625 0,0.0312 -0.0312,0 -2.0625,0.875 0.4375,1 2.03125,-0.875 0.0312,0 2.375,-0.90625 0.0312,0 2.4375,-0.875 0,0.0312 1.25,-0.40625 -0.34375,-1.03125 z m 57.25,1.875 1.5,0.5 0.0312,0 2.4375,0.875 0.0312,0 2.4375,0.9375 1.71875,0.71875 0.4375,-1 -1.75,-0.71875 -2.46875,-0.96875 -2.5,-0.875 -0.0312,-0.0312 -1.5,-0.5 z m -69.09375,3.09375 -0.0312,0.0312 -2.1875,1.15625 -2.15625,1.25 -2.09375,1.28125 -0.34375,0.21875 0.59375,0.90625 0.3125,-0.1875 0.0312,0 2.0625,-1.28125 2.125,-1.21875 2.15625,-1.15625 0.0312,-0.0312 0.84375,-0.40625 -0.5,-0.96875 z m 81.25,1.6875 1.40625,0.65625 4.59375,2.28125 0.0312,0.0312 1.75,0.9375 0.5,-0.9375 -1.75,-0.96875 -0.0312,-0.0312 -4.625,-2.28125 0,-0.0312 -1.4375,-0.65625 z m -338.59375,-0.21875 0.0312,1.09375 1.03125,-0.0312 2.34375,0.0625 0.0312,0 2.28125,0.125 0.0312,0 2.28125,0.25 0.0312,0 0.59375,0.0937 0.15625,-1.09375 -0.625,-0.0937 -2.34375,-0.21875 -0.0312,0 -2.34375,-0.15625 -0.0312,0 L 185,906.125 z m -6.09375,0.375 -2.28125,0.21875 -0.0312,0 -2.25,0.3125 -2.1875,0.34375 -0.28125,0.0312 0.1875,1.09375 0.25,-0.0625 0.0312,0 2.15625,-0.34375 2.21875,-0.28125 0.0312,0 2.25,-0.25 1.6875,-0.125 -0.0937,-1.09375 z M 196.875,908.5 l 1.90625,0.4375 0.0312,0 2.21875,0.59375 0.0312,0 2.1875,0.65625 0.0312,0 1.9375,0.6875 0.375,-1.0625 -2,-0.65625 -2.25,-0.6875 -2.28125,-0.59375 -1.9375,-0.4375 z m -32.09375,0.1875 -0.0312,0 -2,0.53125 -1.96875,0.5625 -0.0312,0 -2.71875,0.875 0.3125,1.03125 2.71875,-0.875 0.0312,0 1.9375,-0.53125 L 165,909.75 l 0.0312,0 1.6875,-0.375 -0.21875,-1.0625 z m 265.9375,2.4375 -1.96875,1.4375 -1.9375,1.4375 0,0.0312 -0.0312,0 -2.9375,2.34375 0.6875,0.875 2.9375,-2.375 1.90625,-1.4375 0.0312,0 1.9375,-1.40625 0.0937,-0.0625 -0.59375,-0.90625 z m -221.4375,1.3125 0.59375,0.21875 2.15625,0.96875 0.0312,0 2.15625,1.03125 2.15625,1.0625 0.0312,0.0312 0.75,0.375 0.5,-0.96875 -0.75,-0.40625 -0.0312,0 -2.15625,-1.09375 -0.0312,0 -2.1875,-1.03125 -2.1875,-0.96875 -0.0312,0 -0.59375,-0.25 z m 324.84375,-0.0312 3.28125,1.9375 4.1875,2.59375 0.5625,-0.9375 -4.1875,-2.59375 -3.3125,-1.9375 z m -380.78125,-0.0625 0,0.0312 -3.4375,1.46875 -0.0312,0 -3.25,1.59375 -0.75,0.40625 0.5,0.96875 0.75,-0.40625 3.21875,-1.5625 0.0312,-0.0312 3.375,-1.4375 0.5,-0.1875 -0.375,-1.03125 z m 530.09375,6.09375 0,0.0312 -0.9375,1.65625 0,0.0312 -0.4375,0.6875 0.9375,0.5625 0.4375,-0.71875 0.96875,-1.71875 0,-0.0312 0.71875,-1.46875 -0.96875,-0.5 z m -462.46875,-0.1875 1.875,1.0625 0.0312,0 4.25,2.625 0.0312,0 1.25,0.8125 0.59375,-0.90625 -1.28125,-0.8125 0,-0.0312 -4.3125,-2.625 -1.90625,-1.09375 z m -80.375,0.625 -0.0312,0 -2.75,1.8125 0,0.0312 -2.59375,1.84375 0,0.0312 -0.0312,0 -0.4375,0.34375 0.65625,0.875 0.46875,-0.375 0,0.0312 2.5625,-1.875 2.71875,-1.78125 0.0312,-0.0312 1.40625,-0.84375 -0.5625,-0.9375 z m 404.65625,0.4375 0.65625,0.4375 0.0312,0 4.125,2.78125 2.40625,1.65625 0.625,-0.875 -2.40625,-1.6875 -4.15625,-2.78125 -0.6875,-0.46875 z m -125.90625,0.90625 -3.59375,3.25 -1.75,1.65625 0.75,0.78125 1.75,-1.65625 0,0.0312 3.5625,-3.25 1.125,-0.96875 -0.71875,-0.84375 z m -187.28125,4.9375 3.65625,2.5 3.53125,2.46875 0.625,-0.875 -3.53125,-2.5 -3.65625,-2.5 z m 447.25,-0.1875 -1.0625,1.40625 -0.0312,0.0312 -1.21875,1.5 0.0312,0 -1.34375,1.53125 -0.0312,0.0312 -1.46875,1.59375 -0.0312,0.0312 0.78125,0.78125 0.0312,-0.0625 0.0312,0 1.46875,-1.625 0.0312,0 1.34375,-1.59375 0.0312,0 1.21875,-1.53125 1.09375,-1.4375 0.0312,-0.0312 0.34375,-0.53125 -0.875,-0.59375 z m -548.8125,1.4375 -0.0312,0.0312 -2.125,1.9375 -1.96875,1.9375 -0.0312,0 -1.40625,1.46875 0.8125,0.75 1.375,-1.4375 0.0312,-0.0312 1.9375,-1.90625 2.09375,-1.90625 0.0312,0 0.8125,-0.6875 -0.71875,-0.84375 z m 425.5625,0.28125 6.125,4.28125 0.0312,0 1.03125,0.75 0.625,-0.90625 -1.03125,-0.71875 -0.0312,0 -6.125,-4.28125 z m -150.75,6.875 -0.75,0.71875 0.78125,0.78125 0.71875,-0.71875 5.53125,-5.40625 -0.78125,-0.78125 z m -162.5,-0.875 1.53125,1.09375 5.53125,4.03125 0.65625,-0.90625 -5.5625,-4 0,-0.0312 -1.53125,-1.09375 z m 324.03125,1.5 3.3125,2.25 3.9375,2.59375 0.0312,0 0.0312,0.0312 0.59375,-0.9375 -0.0625,-0.0312 -3.9375,-2.5625 -3.28125,-2.25 z m 104,0.15625 -0.0312,0 -1.875,1.65625 -0.0312,0 -2.03125,1.65625 -2.1875,1.625 -0.0312,0 -0.375,0.28125 0.59375,0.90625 0.4375,-0.28125 0,-0.0312 2.21875,-1.625 0,-0.0312 0.0312,0 2.0625,-1.65625 0,-0.0312 1.9375,-1.65625 0.21875,-0.21875 -0.75,-0.78125 z m -549.53125,1.5625 -0.0312,0.0312 -1.375,1.75 -0.0312,0 -1.25,1.6875 -1.125,1.59375 -0.78125,1.15625 0.90625,0.59375 0.78125,-1.125 -0.0312,0 1.125,-1.5625 1.25,-1.65625 0,-0.0312 1.40625,-1.71875 -0.0312,0 0.71875,-0.84375 L 122,935.0625 z m 277.09375,4.40625 -3.28125,3.09375 0.75,0.78125 3.28125,-3.09375 3.0625,-2.96875 -0.78125,-0.78125 z m -144.96875,0.0625 4.0625,2.9375 3.0625,2.125 0.625,-0.875 -3.03125,-2.15625 L 254.0625,939.5 z m 324.4375,1 0.1875,0.125 0.0312,0 3.96875,2.34375 3.4375,1.875 0.53125,-0.96875 -3.4375,-1.875 0,0.0312 -3.9375,-2.34375 -0.0312,0 -0.1875,-0.125 z m 81.9375,1.0625 -0.0312,0.0312 -2.65625,1.5 -2.84375,1.4375 -1.3125,0.59375 0.4375,1 1.34375,-0.59375 0.0312,-0.0312 2.84375,-1.4375 0.0312,0 0,-0.0312 2.6875,-1.5 0.0312,0 0,-0.0312 0.84375,-0.5 -0.59375,-0.9375 z m -546.0625,4.625 -0.0312,0 -0.875,1.71875 1,0.5 0.84375,-1.6875 0,-0.0312 0.65625,-1.15625 -0.9375,-0.53125 z m 277.59375,-0.1875 -0.0312,0 -3.625,3.125 -0.0312,0.0312 -2.40625,1.9375 0.6875,0.84375 2.4375,-1.9375 0,-0.0312 3.65625,-3.15625 0.0312,0 0.59375,-0.53125 -0.75,-0.8125 z m 198.09375,0.8125 0.6875,0.3125 2.03125,0.90625 0.0312,0 2.03125,0.875 0.0312,0 2.0625,0.78125 1.28125,0.46875 0.375,-1.03125 -1.28125,-0.46875 0,0.0312 -2.03125,-0.8125 -0.0312,0 -2,-0.84375 -0.0312,0 -2,-0.90625 -0.6875,-0.3125 z m -325.25,0.25 2.375,1.625 4.625,3 0,0.0312 0.3125,0.1875 0.5625,-0.9375 -0.28125,-0.1875 -4.625,-3 -2.375,-1.625 z m 383.90625,0.0937 0,0.0312 -0.0312,0 -3.34375,1.15625 -0.0312,0 -3.53125,1.0625 -0.0312,0 -0.40625,0.125 0.25,1.0625 0.46875,-0.125 3.59375,-1.0625 0.0312,-0.0312 3.375,-1.15625 0.0312,-0.0312 0.90625,-0.34375 -0.40625,-1.03125 z m -46.28125,4.3125 0.84375,0.21875 0,0.0312 2.125,0.5 0.0312,0 0,0.0312 2.15625,0.4375 0.0312,0 2.15625,0.375 0.0312,0 1.25,0.15625 0.15625,-1.0625 -1.25,-0.1875 -0.0312,0 -2.125,-0.34375 -0.0312,0 -2.09375,-0.46875 -0.0312,0 -2.09375,-0.5 -0.0312,0 -0.8125,-0.25 z m 31.6875,-0.3125 0,-0.0312 -4.125,0.65625 -0.0312,0 -1.4375,0.15625 0.125,1.09375 1.46875,-0.15625 4.15625,-0.65625 0.0312,0 3.03125,-0.625 -0.21875,-1.0625 z m -13,1.40625 -2.28125,0.0625 -2.25,-0.0312 -0.0312,0 -1.03125,-0.0625 -0.0625,1.09375 1.0625,0.0625 0.0312,0 2.28125,0.0312 2.3125,-0.0625 0.0312,0 3.09375,-0.1875 -0.0937,-1.09375 z m -345.28125,1.625 0.6875,0.40625 0,0.0312 4.78125,2.75 0.0312,0 2.125,1.15625 0.53125,-0.9375 -2.125,-1.15625 -0.0312,-0.0312 -4.75,-2.75 0,0.0312 -0.65625,-0.4375 z m 104.8125,0.84375 -2,1.375 L 376,958.625 l -0.0312,0 -1.375,0.84375 0.5625,0.9375 1.40625,-0.84375 0,-0.0312 0.0312,0 2.03125,-1.3125 0,-0.0312 0.0312,0 2,-1.375 1.8125,-1.3125 -0.65625,-0.875 z m -93.28125,5.53125 1.34375,0.65625 2.53125,1.1875 2.53125,1.125 0.0312,0 1.5625,0.65625 0.4375,-1 -1.59375,-0.65625 -2.5,-1.125 -0.0312,0 -2.46875,-1.15625 -0.0312,-0.0312 -1.3125,-0.65625 z m 82.875,0.875 -0.0312,0 -2.21875,1.125 -2.28125,1.0625 -2.125,0.90625 0.4375,1 2.125,-0.90625 0.0312,0 2.28125,-1.0625 0,-0.0312 0.0312,0 2.21875,-1.125 0.0312,0 1.21875,-0.65625 -0.53125,-0.96875 z m -70.75,4.34375 2.125,0.75 0,0.0312 2.6875,0.84375 0,0.0312 2.71875,0.78125 0.84375,0.21875 0.28125,-1.03125 -0.84375,-0.25 0,0.0312 -2.65625,-0.8125 -0.0312,0 -2.625,-0.875 -0.0312,0 -2.125,-0.75 z m 59.03125,0.625 -0.0312,0 -2.5,0.78125 -2.59375,0.71875 -2.21875,0.53125 0.25,1.0625 2.21875,-0.53125 0.0312,0 2.59375,-0.71875 0.0312,0 2.53125,-0.8125 0.0312,0 1.03125,-0.34375 -0.375,-1.03125 z M 311.5,970.375 l 0.4375,0.0937 2.8125,0.5625 0.0312,0.0312 2.84375,0.46875 2.5625,0.34375 0.125,-1.09375 -2.53125,-0.34375 -2.8125,-0.46875 -0.0312,0 -2.75,-0.5625 -0.0312,0 -0.40625,-0.0937 z m 33.0625,0.0937 -2.875,0.375 -0.0312,0 -2.96875,0.28125 -1,0.0937 0.0625,1.0625 1.03125,-0.0625 3,-0.28125 0.0312,0 2.90625,-0.40625 1.78125,-0.28125 -0.1875,-1.09375 z m -20,1.8125 1.875,0.15625 0.0312,0 3,0.0937 0.0312,0 3.0625,0 0.8125,-0.0312 -0.0312,-1.09375 -0.78125,0.0312 -0.0312,0 -3.03125,0 -2.96875,-0.0937 -0.0312,0 -1.84375,-0.125 z"
         id="path4751"
         inkscape:connector-curvature="0" />
      <path
         id="path4753"
         d="m 686.59056,912.56318 1.10229,8.67346 -8.06801,-3.38927 6.96572,-5.28419 z"
         style="fill:#ffffff;fill-rule:evenodd;stroke:#ffffff;stroke-width:0.87509918pt"
         inkscape:connector-curvature="0" />
    </g>
    <g
       id="g4684">
      <path
         style="font-size:medium;font-style:normal;font-variant:normal;font-weight:normal;font-stretch:normal;text-indent:0;text-align:start;text-decoration:none;line-height:normal;letter-spacing:normal;word-spacing:normal;text-transform:none;direction:ltr;block-progression:tb;writing-mode:lr-tb;text-anchor:start;baseline-shift:baseline;opacity:0.92000002;color:#000000;fill:#ffffff;fill-opacity:1;stroke:none;stroke-width:1.09387398;marker:none;visibility:visible;display:inline;overflow:visible;enable-background:accumulate;font-family:Sans;-inkscape-font-specification:Sans"
         d="m 475.6875,895.75 -0.0312,0 -3.0625,0.1875 -0.0312,0 -0.90625,0.0937 0.0937,1.09375 0.90625,-0.0937 3.0625,-0.1875 3.0625,-0.0937 0.0312,0 1.625,0 0,-1.09375 -1.65625,0 z m 9.125,0.5625 -0.0312,0.53125 2.90625,0.1875 0.0312,0 2.84375,0.25 0.0312,0 2.78125,0.375 0.0312,0 0.0312,0 0.15625,-1.09375 -0.0312,0 -0.0312,0 -2.84375,-0.34375 -2.875,-0.28125 -0.0312,0 -2.9375,-0.1875 -0.0312,0 z m -18.15625,0.28125 -0.0312,0 -2.84375,0.46875 -2.75,0.53125 -0.0312,0 -2.375,0.5625 0.25,1.0625 2.375,-0.5625 2.71875,-0.53125 0.0312,0 2.78125,-0.46875 0.0312,0 0.59375,-0.0625 -0.125,-1.09375 z m 31.09375,1.75 1.125,0.21875 0.0312,0 2.65625,0.5625 0.0312,0 2.625,0.65625 2,0.53125 0.28125,-1.03125 -2,-0.5625 -0.0312,0 -2.65625,-0.65625 -2.6875,-0.5625 -0.0312,0 -1.15625,-0.21875 z m -44.625,1.375 -2.46875,0.875 -0.0312,0 -2.40625,0.90625 0,0.0312 -0.0312,0 -2.0625,0.875 0.4375,1 2.03125,-0.875 0.0312,0 2.375,-0.90625 0.0312,0 2.4375,-0.875 0,0.0312 1.25,-0.40625 -0.34375,-1.03125 z m 57.25,1.875 1.5,0.5 0.0312,0 2.4375,0.875 0.0312,0 2.4375,0.9375 1.71875,0.71875 0.4375,-1 -1.75,-0.71875 -2.46875,-0.96875 -2.5,-0.875 -0.0312,-0.0312 -1.5,-0.5 z m -69.09375,3.09375 -0.0312,0.0312 -2.1875,1.15625 -2.15625,1.25 -2.09375,1.28125 -0.34375,0.21875 0.59375,0.90625 0.3125,-0.1875 0.0312,0 2.0625,-1.28125 2.125,-1.21875 2.15625,-1.15625 0.0312,-0.0312 0.84375,-0.40625 -0.5,-0.96875 z m 81.25,1.6875 1.40625,0.65625 4.59375,2.28125 0.0312,0.0312 1.75,0.9375 0.5,-0.9375 -1.75,-0.96875 -0.0312,-0.0312 -4.625,-2.28125 0,-0.0312 -1.4375,-0.65625 z m -338.59375,-0.21875 0.0312,1.09375 1.03125,-0.0312 2.34375,0.0625 0.0312,0 2.28125,0.125 0.0312,0 2.28125,0.25 0.0312,0 0.59375,0.0937 0.15625,-1.09375 -0.625,-0.0937 -2.34375,-0.21875 -0.0312,0 -2.34375,-0.15625 -0.0312,0 L 185,906.125 z m -6.09375,0.375 -2.28125,0.21875 -0.0312,0 -2.25,0.3125 -2.1875,0.34375 -0.28125,0.0312 0.1875,1.09375 0.25,-0.0625 0.0312,0 2.15625,-0.34375 2.21875,-0.28125 0.0312,0 2.25,-0.25 1.6875,-0.125 -0.0937,-1.09375 z M 196.875,908.5 l 1.90625,0.4375 0.0312,0 2.21875,0.59375 0.0312,0 2.1875,0.65625 0.0312,0 1.9375,0.6875 0.375,-1.0625 -2,-0.65625 -2.25,-0.6875 -2.28125,-0.59375 -1.9375,-0.4375 z m -32.09375,0.1875 -0.0312,0 -2,0.53125 -1.96875,0.5625 -0.0312,0 -2.71875,0.875 0.3125,1.03125 2.71875,-0.875 0.0312,0 1.9375,-0.53125 L 165,909.75 l 0.0312,0 1.6875,-0.375 -0.21875,-1.0625 z m 265.9375,2.4375 -1.96875,1.4375 -1.9375,1.4375 0,0.0312 -0.0312,0 -2.9375,2.34375 0.6875,0.875 2.9375,-2.375 1.90625,-1.4375 0.0312,0 1.9375,-1.40625 0.0937,-0.0625 -0.59375,-0.90625 z m -221.4375,1.3125 0.59375,0.21875 2.15625,0.96875 0.0312,0 2.15625,1.03125 2.15625,1.0625 0.0312,0.0312 0.75,0.375 0.5,-0.96875 -0.75,-0.40625 -0.0312,0 -2.15625,-1.09375 -0.0312,0 -2.1875,-1.03125 -2.1875,-0.96875 -0.0312,0 -0.59375,-0.25 z m 324.84375,-0.0312 3.28125,1.9375 4.1875,2.59375 0.5625,-0.9375 -4.1875,-2.59375 -3.3125,-1.9375 z m -380.78125,-0.0625 0,0.0312 -3.4375,1.46875 -0.0312,0 -3.25,1.59375 -0.75,0.40625 0.5,0.96875 0.75,-0.40625 3.21875,-1.5625 0.0312,-0.0312 3.375,-1.4375 0.5,-0.1875 -0.375,-1.03125 z m 530.09375,6.09375 0,0.0312 -0.9375,1.65625 0,0.0312 -0.4375,0.6875 0.9375,0.5625 0.4375,-0.71875 0.96875,-1.71875 0,-0.0312 0.71875,-1.46875 -0.96875,-0.5 z m -462.46875,-0.1875 1.875,1.0625 0.0312,0 4.25,2.625 0.0312,0 1.25,0.8125 0.59375,-0.90625 -1.28125,-0.8125 0,-0.0312 -4.3125,-2.625 -1.90625,-1.09375 z m -80.375,0.625 -0.0312,0 -2.75,1.8125 0,0.0312 -2.59375,1.84375 0,0.0312 -0.0312,0 -0.4375,0.34375 0.65625,0.875 0.46875,-0.375 0,0.0312 2.5625,-1.875 2.71875,-1.78125 0.0312,-0.0312 1.40625,-0.84375 -0.5625,-0.9375 z m 404.65625,0.4375 0.65625,0.4375 0.0312,0 4.125,2.78125 2.40625,1.65625 0.625,-0.875 -2.40625,-1.6875 -4.15625,-2.78125 -0.6875,-0.46875 z m -125.90625,0.90625 -3.59375,3.25 -1.75,1.65625 0.75,0.78125 1.75,-1.65625 0,0.0312 3.5625,-3.25 1.125,-0.96875 -0.71875,-0.84375 z m -187.28125,4.9375 3.65625,2.5 3.53125,2.46875 0.625,-0.875 -3.53125,-2.5 -3.65625,-2.5 z m 447.25,-0.1875 -1.0625,1.40625 -0.0312,0.0312 -1.21875,1.5 0.0312,0 -1.34375,1.53125 -0.0312,0.0312 -1.46875,1.59375 -0.0312,0.0312 0.78125,0.78125 0.0312,-0.0625 0.0312,0 1.46875,-1.625 0.0312,0 1.34375,-1.59375 0.0312,0 1.21875,-1.53125 1.09375,-1.4375 0.0312,-0.0312 0.34375,-0.53125 -0.875,-0.59375 z m -548.8125,1.4375 -0.0312,0.0312 -2.125,1.9375 -1.96875,1.9375 -0.0312,0 -1.40625,1.46875 0.8125,0.75 1.375,-1.4375 0.0312,-0.0312 1.9375,-1.90625 2.09375,-1.90625 0.0312,0 0.8125,-0.6875 -0.71875,-0.84375 z m 425.5625,0.28125 6.125,4.28125 0.0312,0 1.03125,0.75 0.625,-0.90625 -1.03125,-0.71875 -0.0312,0 -6.125,-4.28125 z m -150.75,6.875 -0.75,0.71875 0.78125,0.78125 0.71875,-0.71875 5.53125,-5.40625 -0.78125,-0.78125 z m -162.5,-0.875 1.53125,1.09375 5.53125,4.03125 0.65625,-0.90625 -5.5625,-4 0,-0.0312 -1.53125,-1.09375 z m 324.03125,1.5 3.3125,2.25 3.9375,2.59375 0.0312,0 0.0312,0.0312 0.59375,-0.9375 -0.0625,-0.0312 -3.9375,-2.5625 -3.28125,-2.25 z m 104,0.15625 -0.0312,0 -1.875,1.65625 -0.0312,0 -2.03125,1.65625 -2.1875,1.625 -0.0312,0 -0.375,0.28125 0.59375,0.90625 0.4375,-0.28125 0,-0.0312 2.21875,-1.625 0,-0.0312 0.0312,0 2.0625,-1.65625 0,-0.0312 1.9375,-1.65625 0.21875,-0.21875 -0.75,-0.78125 z m -549.53125,1.5625 -0.0312,0.0312 -1.375,1.75 -0.0312,0 -1.25,1.6875 -1.125,1.59375 -0.78125,1.15625 0.90625,0.59375 0.78125,-1.125 -0.0312,0 1.125,-1.5625 1.25,-1.65625 0,-0.0312 1.40625,-1.71875 -0.0312,0 0.71875,-0.84375 L 122,935.0625 z m 277.09375,4.40625 -3.28125,3.09375 0.75,0.78125 3.28125,-3.09375 3.0625,-2.96875 -0.78125,-0.78125 z m -144.96875,0.0625 4.0625,2.9375 3.0625,2.125 0.625,-0.875 -3.03125,-2.15625 L 254.0625,939.5 z m 324.4375,1 0.1875,0.125 0.0312,0 3.96875,2.34375 3.4375,1.875 0.53125,-0.96875 -3.4375,-1.875 0,0.0312 -3.9375,-2.34375 -0.0312,0 -0.1875,-0.125 z m 81.9375,1.0625 -0.0312,0.0312 -2.65625,1.5 -2.84375,1.4375 -1.3125,0.59375 0.4375,1 1.34375,-0.59375 0.0312,-0.0312 2.84375,-1.4375 0.0312,0 0,-0.0312 2.6875,-1.5 0.0312,0 0,-0.0312 0.84375,-0.5 -0.59375,-0.9375 z m -546.0625,4.625 -0.0312,0 -0.875,1.71875 1,0.5 0.84375,-1.6875 0,-0.0312 0.65625,-1.15625 -0.9375,-0.53125 z m 277.59375,-0.1875 -0.0312,0 -3.625,3.125 -0.0312,0.0312 -2.40625,1.9375 0.6875,0.84375 2.4375,-1.9375 0,-0.0312 3.65625,-3.15625 0.0312,0 0.59375,-0.53125 -0.75,-0.8125 z m 198.09375,0.8125 0.6875,0.3125 2.03125,0.90625 0.0312,0 2.03125,0.875 0.0312,0 2.0625,0.78125 1.28125,0.46875 0.375,-1.03125 -1.28125,-0.46875 0,0.0312 -2.03125,-0.8125 -0.0312,0 -2,-0.84375 -0.0312,0 -2,-0.90625 -0.6875,-0.3125 z m -325.25,0.25 2.375,1.625 4.625,3 0,0.0312 0.3125,0.1875 0.5625,-0.9375 -0.28125,-0.1875 -4.625,-3 -2.375,-1.625 z m 383.90625,0.0937 0,0.0312 -0.0312,0 -3.34375,1.15625 -0.0312,0 -3.53125,1.0625 -0.0312,0 -0.40625,0.125 0.25,1.0625 0.46875,-0.125 3.59375,-1.0625 0.0312,-0.0312 3.375,-1.15625 0.0312,-0.0312 0.90625,-0.34375 -0.40625,-1.03125 z m -46.28125,4.3125 0.84375,0.21875 0,0.0312 2.125,0.5 0.0312,0 0,0.0312 2.15625,0.4375 0.0312,0 2.15625,0.375 0.0312,0 1.25,0.15625 0.15625,-1.0625 -1.25,-0.1875 -0.0312,0 -2.125,-0.34375 -0.0312,0 -2.09375,-0.46875 -0.0312,0 -2.09375,-0.5 -0.0312,0 -0.8125,-0.25 z m 31.6875,-0.3125 0,-0.0312 -4.125,0.65625 -0.0312,0 -1.4375,0.15625 0.125,1.09375 1.46875,-0.15625 4.15625,-0.65625 0.0312,0 3.03125,-0.625 -0.21875,-1.0625 z m -13,1.40625 -2.28125,0.0625 -2.25,-0.0312 -0.0312,0 -1.03125,-0.0625 -0.0625,1.09375 1.0625,0.0625 0.0312,0 2.28125,0.0312 2.3125,-0.0625 0.0312,0 3.09375,-0.1875 -0.0937,-1.09375 z m -345.28125,1.625 0.6875,0.40625 0,0.0312 4.78125,2.75 0.0312,0 2.125,1.15625 0.53125,-0.9375 -2.125,-1.15625 -0.0312,-0.0312 -4.75,-2.75 0,0.0312 -0.65625,-0.4375 z m 104.8125,0.84375 -2,1.375 L 376,958.625 l -0.0312,0 -1.375,0.84375 0.5625,0.9375 1.40625,-0.84375 0,-0.0312 0.0312,0 2.03125,-1.3125 0,-0.0312 0.0312,0 2,-1.375 1.8125,-1.3125 -0.65625,-0.875 z m -93.28125,5.53125 1.34375,0.65625 2.53125,1.1875 2.53125,1.125 0.0312,0 1.5625,0.65625 0.4375,-1 -1.59375,-0.65625 -2.5,-1.125 -0.0312,0 -2.46875,-1.15625 -0.0312,-0.0312 -1.3125,-0.65625 z m 82.875,0.875 -0.0312,0 -2.21875,1.125 -2.28125,1.0625 -2.125,0.90625 0.4375,1 2.125,-0.90625 0.0312,0 2.28125,-1.0625 0,-0.0312 0.0312,0 2.21875,-1.125 0.0312,0 1.21875,-0.65625 -0.53125,-0.96875 z m -70.75,4.34375 2.125,0.75 0,0.0312 2.6875,0.84375 0,0.0312 2.71875,0.78125 0.84375,0.21875 0.28125,-1.03125 -0.84375,-0.25 0,0.0312 -2.65625,-0.8125 -0.0312,0 -2.625,-0.875 -0.0312,0 -2.125,-0.75 z m 59.03125,0.625 -0.0312,0 -2.5,0.78125 -2.59375,0.71875 -2.21875,0.53125 0.25,1.0625 2.21875,-0.53125 0.0312,0 2.59375,-0.71875 0.0312,0 2.53125,-0.8125 0.0312,0 1.03125,-0.34375 -0.375,-1.03125 z M 311.5,970.375 l 0.4375,0.0937 2.8125,0.5625 0.0312,0.0312 2.84375,0.46875 2.5625,0.34375 0.125,-1.09375 -2.53125,-0.34375 -2.8125,-0.46875 -0.0312,0 -2.75,-0.5625 -0.0312,0 -0.40625,-0.0937 z m 33.0625,0.0937 -2.875,0.375 -0.0312,0 -2.96875,0.28125 -1,0.0937 0.0625,1.0625 1.03125,-0.0625 3,-0.28125 0.0312,0 2.90625,-0.40625 1.78125,-0.28125 -0.1875,-1.09375 z m -20,1.8125 1.875,0.15625 0.0312,0 3,0.0937 0.0312,0 3.0625,0 0.8125,-0.0312 -0.0312,-1.09375 -0.78125,0.0312 -0.0312,0 -3.03125,0 -2.96875,-0.0937 -0.0312,0 -1.84375,-0.125 z"
         id="path3431"
         inkscape:connector-curvature="0" />
      <path
         id="path4690"
         d="m 686.59056,912.56318 1.10229,8.67346 -8.06801,-3.38927 6.96572,-5.28419 z"
         style="fill:#ffffff;fill-rule:evenodd;stroke:#ffffff;stroke-width:0.87509918pt"
         inkscape:connector-curvature="0" />
    </g>
    <rect
       ry="0"
       rx="0"
       y="802.36218"
       x="0"
       height="250"
       width="772"
       id="rect2996"
       style="color:#000000;fill:url(#linearGradient4676);fill-opacity:1.0;fill-rule:nonzero;stroke:none;stroke-width:3;marker:none;visibility:visible;display:inline;overflow:visible;enable-background:accumulate" />
    <g
       id="g3086"
       transform="matrix(0.14238961,0,0,0.14238961,24.036027,941.63349)">
      <g
         id="g3088">
        <g
           id="g3090">
          <path
             id="path3092"
             d="M 187.57,359.458 H 548.465 L 612.321,131.524 H 518.348 L 484.608,27.304 343.9,72.916 l 19.244,58.608 h -6.623 l -34.74,-104.22 -140.709,45.612 19.244,58.608 H 125.088 L 109.468,69.042 C 101.595,37.801 74.353,15.683 42.987,15.683 H 0 V 41.8 h 42.987 c 19.494,0 36.489,12.996 41.738,32.616 l 69.105,270.421 c -14.246,10.247 -23.618,26.992 -23.618,46.112 0,31.241 26.117,57.358 57.358,57.358 H 539.343 V 422.19 H 187.57 c -16.995,0 -31.241,-14.371 -31.241,-31.241 0.001,-17.12 14.371,-31.491 31.241,-31.491 l 0,0 z M 467.739,59.795 491.232,130.15 H 389.637 L 375.266,89.787 467.739,59.795 z m -162.828,0 23.493,70.355 H 226.809 L 212.438,89.787 304.911,59.795 z m 273.546,96.472 -49.486,177.199 H 177.198 l -45.612,-177.198 446.871,-0.001 0,0 z"
             inkscape:connector-curvature="0"
             style="fill:#ffffff" />
          <path
             id="path3094"
             d="m 424.751,487.171 c -29.991,0 -54.734,24.743 -54.734,54.734 0,29.991 24.743,54.734 54.734,54.734 31.241,0 54.734,-24.743 54.734,-54.734 10e-4,-29.991 -24.742,-54.734 -54.734,-54.734 z m 0,84.725 c -16.995,0 -29.991,-14.371 -29.991,-29.991 0,-16.995 14.371,-29.991 29.991,-29.991 16.995,0 29.991,12.996 29.991,29.991 10e-4,16.995 -14.37,29.991 -29.991,29.991 z"
             inkscape:connector-curvature="0"
             style="fill:#ffffff" />
          <path
             id="path3096"
             d="m 224.06,487.171 c -29.991,0 -54.734,24.743 -54.734,54.734 0,29.991 24.743,54.734 54.734,54.734 29.991,0 54.734,-24.743 54.734,-54.734 0,-29.991 -24.743,-54.734 -54.734,-54.734 z m 0,84.725 c -16.995,0 -29.991,-14.371 -29.991,-29.991 0,-16.995 14.371,-29.991 29.991,-29.991 15.62,0 29.991,12.996 29.991,29.991 0,16.995 -14.371,29.991 -29.991,29.991 z"
             inkscape:connector-curvature="0"
             style="fill:#ffffff" />
        </g>
      </g>
    </g>
    <g
       id="g3098"
       transform="matrix(0.14238961,0,0,0.14238961,48.056332,948.66395)" />
    <g
       id="g3100"
       transform="matrix(0.14238961,0,0,0.14238961,48.056332,948.66395)" />
    <g
       id="g3102"
       transform="matrix(0.14238961,0,0,0.14238961,48.056332,948.66395)" />
    <g
       id="g3104"
       transform="matrix(0.14238961,0,0,0.14238961,48.056332,948.66395)" />
    <g
       id="g3106"
       transform="matrix(0.14238961,0,0,0.14238961,48.056332,948.66395)" />
    <g
       id="g3108"
       transform="matrix(0.14238961,0,0,0.14238961,48.056332,948.66395)" />
    <g
       id="g3110"
       transform="matrix(0.14238961,0,0,0.14238961,48.056332,948.66395)" />
    <g
       id="g3112"
       transform="matrix(0.14238961,0,0,0.14238961,48.056332,948.66395)" />
    <g
       id="g3114"
       transform="matrix(0.14238961,0,0,0.14238961,48.056332,948.66395)" />
    <g
       id="g3116"
       transform="matrix(0.14238961,0,0,0.14238961,48.056332,948.66395)" />
    <g
       id="g3118"
       transform="matrix(0.14238961,0,0,0.14238961,48.056332,948.66395)" />
    <g
       id="g3120"
       transform="matrix(0.14238961,0,0,0.14238961,48.056332,948.66395)" />
    <g
       id="g3122"
       transform="matrix(0.14238961,0,0,0.14238961,48.056332,948.66395)" />
    <g
       id="g3124"
       transform="matrix(0.14238961,0,0,0.14238961,48.056332,948.66395)" />
    <g
       id="g3126"
       transform="matrix(0.14238961,0,0,0.14238961,48.056332,948.66395)" />
    <g
       style="fill:#ffffff"
       id="g3296"
       transform="matrix(0.18903525,0,0,0.18903525,673.34034,827.67691)">
      <g
         style="fill:#ffffff"
         id="g3298">
        <path
           id="path3300"
           d="M 199.996,0 C 89.713,0 0,89.72 0,200 0,310.28 89.713,400 199.996,400 310.279,400 400,310.28 400,200 400,89.72 310.279,0 199.996,0 z m 0,373.77 C 104.18,373.77 26.23,295.816 26.23,200 c 0,-95.817 77.949,-173.769 173.766,-173.769 95.817,0 173.771,77.953 173.771,173.769 10e-4,95.816 -77.955,173.77 -173.771,173.77 z"
           inkscape:connector-curvature="0"
           style="fill:#ffffff" />
        <path
           id="path3302"
           d="m 272.406,134.526 -103.131,103.126 -41.689,-41.68 c -5.123,-5.117 -13.422,-5.12 -18.545,0.003 -5.125,5.125 -5.125,13.425 0,18.548 l 50.963,50.955 c 2.561,2.558 5.916,3.838 9.271,3.838 3.355,0 6.719,-1.28 9.279,-3.842 0.008,-0.011 0.014,-0.022 0.027,-0.035 L 290.95,153.071 c 5.125,-5.12 5.125,-13.426 0,-18.546 -5.122,-5.123 -13.427,-5.123 -18.544,0.001 z"
           inkscape:connector-curvature="0"
           style="fill:#ffffff" />
      </g>
    </g>
    <g
       id="g3304"
       transform="matrix(0.50975868,0,0,0.50975868,655.1576,495.33672)" />
    <g
       id="g3306"
       transform="matrix(0.50975868,0,0,0.50975868,655.1576,495.33672)" />
    <g
       id="g3308"
       transform="matrix(0.50975868,0,0,0.50975868,655.1576,495.33672)" />
    <g
       id="g3310"
       transform="matrix(0.50975868,0,0,0.50975868,655.1576,495.33672)" />
    <g
       id="g3312"
       transform="matrix(0.50975868,0,0,0.50975868,655.1576,495.33672)" />
    <g
       id="g3314"
       transform="matrix(0.50975868,0,0,0.50975868,655.1576,495.33672)" />
    <g
       id="g3316"
       transform="matrix(0.50975868,0,0,0.50975868,655.1576,495.33672)" />
    <g
       id="g3318"
       transform="matrix(0.50975868,0,0,0.50975868,655.1576,495.33672)" />
    <g
       id="g3320"
       transform="matrix(0.50975868,0,0,0.50975868,655.1576,495.33672)" />
    <g
       id="g3322"
       transform="matrix(0.50975868,0,0,0.50975868,655.1576,495.33672)" />
    <g
       id="g3324"
       transform="matrix(0.50975868,0,0,0.50975868,655.1576,495.33672)" />
    <g
       id="g3326"
       transform="matrix(0.50975868,0,0,0.50975868,655.1576,495.33672)" />
    <g
       id="g3328"
       transform="matrix(0.50975868,0,0,0.50975868,655.1576,495.33672)" />
    <g
       id="g3330"
       transform="matrix(0.50975868,0,0,0.50975868,655.1576,495.33672)" />
    <g
       id="g3332"
       transform="matrix(0.50975868,0,0,0.50975868,655.1576,495.33672)" />
    <g
       id="g5723"
       transform="matrix(0.23974453,0.41805448,-0.45545442,0.22005775,736.6766,507.44913)"
       style="fill:#ffffff">
      <path
         style="fill:#ffffff"
         inkscape:connector-curvature="0"
         d="m 502.71676,1149.7854 c -4.69808,-3.3128 -10.60574,-3.8194 -15.80082,-1.354 l -13.56647,6.437 c -10.1422,4.8128 -17.3773,13.8755 -19.85006,24.8636 -1.38479,6.1545 -3.42215,10.9142 -6.05367,14.1463 -1.02904,1.2632 -1.03381,3.0743 -0.0122,4.3434 l 14.42506,17.9199 c 0.67381,0.8368 1.67205,1.2876 2.68993,1.2876 0.53735,0 1.07948,-0.1253 1.58284,-0.3855 l 11.18132,-5.7781 c 18.00067,-9.3022 29.95987,-26.8918 31.9898,-47.053 0.57557,-5.7208 -1.88604,-11.1139 -6.58572,-14.4272 z m -0.28301,13.7358 c -1.7947,17.8297 -12.37071,33.3852 -28.29047,41.6122 l -8.67617,4.4836 -11.00291,-13.669 c 2.49559,-3.8273 4.4326,-8.7569 5.77013,-14.7001 2.00338,-8.9045 7.86271,-16.2463 16.07428,-20.1432 l 13.56647,-6.437 c 2.914,-1.3827 6.22783,-1.0991 8.86413,0.7593 2.63684,1.859 4.01844,4.885 3.69454,8.0942 z"
         id="path5592" />
      <path
         style="fill:#ffffff"
         inkscape:connector-curvature="0"
         d="m 444.48607,1198.8063 c -1.13735,-1.3933 -3.15347,-1.6801 -4.63331,-0.659 l -8.95227,6.1726 c -3.7126,2.5604 -6.16412,6.4211 -6.90271,10.8707 -0.73912,4.4491 0.33452,8.8939 3.02073,12.5168 2.67135,3.6021 6.59049,5.9161 11.03477,6.5156 0.75133,0.1014 1.50054,0.1518 2.2455,0.1518 3.65897,0 7.18784,-1.2122 10.12149,-3.5097 l 9.56768,-7.4942 c 0.7301,-0.5719 1.19948,-1.4135 1.30196,-2.3347 0.10248,-0.9218 -0.16938,-1.8457 -0.75611,-2.5647 l -16.04773,-19.6652 z m 1.67789,26.6237 c -2.05223,1.6067 -4.60676,2.3002 -7.18731,1.9519 -2.5832,-0.3484 -4.86057,-1.6933 -6.41367,-3.787 -1.56108,-2.1053 -2.18498,-4.689 -1.75595,-7.2744 0.42956,-2.5863 1.85418,-4.8297 4.01207,-6.3181 l 6.33137,-4.3657 11.80894,14.4702 -6.79545,5.3231 z"
         id="path5594" />
    </g>
    <g
       id="g5727"
       transform="matrix(0.32404668,0.36705037,-0.39988739,0.29743737,563.63033,414.21046)"
       style="opacity:0.98000004;fill:#ffffff">
      <path
         style="fill:#ffffff"
         inkscape:connector-curvature="0"
         d="m 383.65412,1191.5563 c -20.16068,2.0299 -37.75089,13.9886 -47.05256,31.9898 l -5.77756,11.1813 c -0.75346,1.4575 -0.37646,3.2437 0.9016,4.2728 l 17.91942,14.425 c 0.63187,0.5087 1.39807,0.7631 2.16427,0.7631 0.77257,0 1.54514,-0.2586 2.17913,-0.7753 3.23259,-2.632 7.99227,-4.6689 14.1463,-6.0542 10.98857,-2.4727 20.05129,-9.7078 24.86354,-19.85 l 6.43704,-13.5654 c 2.46533,-5.1946 1.95877,-11.1017 -1.35399,-15.8014 -3.31277,-4.6997 -8.69901,-7.1602 -14.42719,-6.5857 z m 9.54591,19.4274 -6.43704,13.5654 c -3.89684,8.2121 -11.23866,14.0714 -20.14315,16.0753 -5.94323,1.3376 -10.87336,3.2735 -14.70064,5.7696 l -13.66895,-11.0029 4.48304,-8.6761 c 8.22643,-15.9198 23.78248,-26.4953 41.61216,-28.2905 3.20764,-0.3239 6.2358,1.0577 8.09422,3.6945 1.85895,2.6363 2.14303,5.9502 0.76036,8.8647 z"
         id="path5596" />
      <path
         style="fill:#ffffff"
         inkscape:connector-curvature="0"
         d="m 320.16038,1273.8397 c 2.87578,2.133 6.27031,3.2485 9.77317,3.2485 0.90957,0 1.82656,-0.075 2.74409,-0.2277 4.44959,-0.7386 8.30927,-3.1902 10.87017,-6.9027 l 6.17261,-8.9518 c 1.02054,-1.4804 0.73381,-3.4965 -0.65947,-4.6333 l -19.66422,-16.0477 c -0.71788,-0.5862 -1.64072,-0.8597 -2.56409,-0.7561 -0.92124,0.1024 -1.76284,0.5718 -2.3347,1.3019 l -7.49369,9.5677 c -2.76533,3.5305 -3.9579,7.9222 -3.35843,12.367 0.59947,4.4448 2.91241,8.3629 6.51456,11.0342 z m 2.27736,-19.1454 5.32252,-6.7955 14.4702,11.809 -4.36623,6.3313 c -1.4878,2.1579 -3.73118,3.5831 -6.31704,4.0121 -2.58533,0.428 -5.16959,-0.1943 -7.27492,-1.7559 -2.09311,-1.5526 -3.43861,-3.8305 -3.78693,-6.4137 -0.34832,-2.5832 0.34514,-5.1351 1.9524,-7.1873 z"
         id="path5598" />
    </g>
    <g
       style="opacity:0.98000004;fill:#ffffff"
       transform="matrix(0.51412834,0.02226163,-0.0242532,0.47191035,267.59956,333.145)"
       id="g5759">
      <path
         id="path5761"
         d="m 383.65412,1191.5563 c -20.16068,2.0299 -37.75089,13.9886 -47.05256,31.9898 l -5.77756,11.1813 c -0.75346,1.4575 -0.37646,3.2437 0.9016,4.2728 l 17.91942,14.425 c 0.63187,0.5087 1.39807,0.7631 2.16427,0.7631 0.77257,0 1.54514,-0.2586 2.17913,-0.7753 3.23259,-2.632 7.99227,-4.6689 14.1463,-6.0542 10.98857,-2.4727 20.05129,-9.7078 24.86354,-19.85 l 6.43704,-13.5654 c 2.46533,-5.1946 1.95877,-11.1017 -1.35399,-15.8014 -3.31277,-4.6997 -8.69901,-7.1602 -14.42719,-6.5857 z m 9.54591,19.4274 -6.43704,13.5654 c -3.89684,8.2121 -11.23866,14.0714 -20.14315,16.0753 -5.94323,1.3376 -10.87336,3.2735 -14.70064,5.7696 l -13.66895,-11.0029 4.48304,-8.6761 c 8.22643,-15.9198 23.78248,-26.4953 41.61216,-28.2905 3.20764,-0.3239 6.2358,1.0577 8.09422,3.6945 1.85895,2.6363 2.14303,5.9502 0.76036,8.8647 z"
         inkscape:connector-curvature="0"
         style="fill:#ffffff" />
      <path
         id="path5763"
         d="m 320.16038,1273.8397 c 2.87578,2.133 6.27031,3.2485 9.77317,3.2485 0.90957,0 1.82656,-0.075 2.74409,-0.2277 4.44959,-0.7386 8.30927,-3.1902 10.87017,-6.9027 l 6.17261,-8.9518 c 1.02054,-1.4804 0.73381,-3.4965 -0.65947,-4.6333 l -19.66422,-16.0477 c -0.71788,-0.5862 -1.64072,-0.8597 -2.56409,-0.7561 -0.92124,0.1024 -1.76284,0.5718 -2.3347,1.3019 l -7.49369,9.5677 c -2.76533,3.5305 -3.9579,7.9222 -3.35843,12.367 0.59947,4.4448 2.91241,8.3629 6.51456,11.0342 z m 2.27736,-19.1454 5.32252,-6.7955 14.4702,11.809 -4.36623,6.3313 c -1.4878,2.1579 -3.73118,3.5831 -6.31704,4.0121 -2.58533,0.428 -5.16959,-0.1943 -7.27492,-1.7559 -2.09311,-1.5526 -3.43861,-3.8305 -3.78693,-6.4137 -0.34832,-2.5832 0.34514,-5.1351 1.9524,-7.1873 z"
         inkscape:connector-curvature="0"
         style="fill:#ffffff" />
    </g>
    <g
       style="fill:#ffffff"
       transform="matrix(0.13032986,0.45703846,-0.49792599,0.11962774,1104.0183,578.48989)"
       id="g5769">
      <path
         id="path5771"
         d="m 502.71676,1149.7854 c -4.69808,-3.3128 -10.60574,-3.8194 -15.80082,-1.354 l -13.56647,6.437 c -10.1422,4.8128 -17.3773,13.8755 -19.85006,24.8636 -1.38479,6.1545 -3.42215,10.9142 -6.05367,14.1463 -1.02904,1.2632 -1.03381,3.0743 -0.0122,4.3434 l 14.42506,17.9199 c 0.67381,0.8368 1.67205,1.2876 2.68993,1.2876 0.53735,0 1.07948,-0.1253 1.58284,-0.3855 l 11.18132,-5.7781 c 18.00067,-9.3022 29.95987,-26.8918 31.9898,-47.053 0.57557,-5.7208 -1.88604,-11.1139 -6.58572,-14.4272 z m -0.28301,13.7358 c -1.7947,17.8297 -12.37071,33.3852 -28.29047,41.6122 l -8.67617,4.4836 -11.00291,-13.669 c 2.49559,-3.8273 4.4326,-8.7569 5.77013,-14.7001 2.00338,-8.9045 7.86271,-16.2463 16.07428,-20.1432 l 13.56647,-6.437 c 2.914,-1.3827 6.22783,-1.0991 8.86413,0.7593 2.63684,1.859 4.01844,4.885 3.69454,8.0942 z"
         inkscape:connector-curvature="0"
         style="fill:#ffffff" />
      <path
         id="path5773"
         d="m 444.48607,1198.8063 c -1.13735,-1.3933 -3.15347,-1.6801 -4.63331,-0.659 l -8.95227,6.1726 c -3.7126,2.5604 -6.16412,6.4211 -6.90271,10.8707 -0.73912,4.4491 0.33452,8.8939 3.02073,12.5168 2.67135,3.6021 6.59049,5.9161 11.03477,6.5156 0.75133,0.1014 1.50054,0.1518 2.2455,0.1518 3.65897,0 7.18784,-1.2122 10.12149,-3.5097 l 9.56768,-7.4942 c 0.7301,-0.5719 1.19948,-1.4135 1.30196,-2.3347 0.10248,-0.9218 -0.16938,-1.8457 -0.75611,-2.5647 l -16.04773,-19.6652 z m 1.67789,26.6237 c -2.05223,1.6067 -4.60676,2.3002 -7.18731,1.9519 -2.5832,-0.3484 -4.86057,-1.6933 -6.41367,-3.787 -1.56108,-2.1053 -2.18498,-4.689 -1.75595,-7.2744 0.42956,-2.5863 1.85418,-4.8297 4.01207,-6.3181 l 6.33137,-4.3657 11.80894,14.4702 -6.79545,5.3231 z"
         inkscape:connector-curvature="0"
         style="fill:#ffffff" />
    </g>
    <text
       xml:space="preserve"
       style="font-style:normal;font-variant:normal;font-weight:normal;font-stretch:normal;line-height:0%;font-family:Raleway;-inkscape-font-specification:Raleway;letter-spacing:0.05px;word-spacing:0px;fill:#ffffff;fill-opacity:1;stroke:none"
       x="300.29959"
       y="1026.3369"
       id="text5775"><tspan
         sodipodi:role="line"
         id="tspan5777"
         x="300.29959"
         y="1026.3369"
         style="font-size:24px;line-height:1.25">Multi-Step Checkout for WooCommerce</tspan></text>
    <g
       id="g4743">
      <path
         inkscape:connector-curvature="0"
         id="path4745"
         d="m 475.6875,895.75 -0.0312,0 -3.0625,0.1875 -0.0312,0 -0.90625,0.0937 0.0937,1.09375 0.90625,-0.0937 3.0625,-0.1875 3.0625,-0.0937 0.0312,0 1.625,0 0,-1.09375 -1.65625,0 z m 9.125,0.5625 -0.0312,0.53125 2.90625,0.1875 0.0312,0 2.84375,0.25 0.0312,0 2.78125,0.375 0.0312,0 0.0312,0 0.15625,-1.09375 -0.0312,0 -0.0312,0 -2.84375,-0.34375 -2.875,-0.28125 -0.0312,0 -2.9375,-0.1875 -0.0312,0 z m -18.15625,0.28125 -0.0312,0 -2.84375,0.46875 -2.75,0.53125 -0.0312,0 -2.375,0.5625 0.25,1.0625 2.375,-0.5625 2.71875,-0.53125 0.0312,0 2.78125,-0.46875 0.0312,0 0.59375,-0.0625 -0.125,-1.09375 z m 31.09375,1.75 1.125,0.21875 0.0312,0 2.65625,0.5625 0.0312,0 2.625,0.65625 2,0.53125 0.28125,-1.03125 -2,-0.5625 -0.0312,0 -2.65625,-0.65625 -2.6875,-0.5625 -0.0312,0 -1.15625,-0.21875 z m -44.625,1.375 -2.46875,0.875 -0.0312,0 -2.40625,0.90625 0,0.0312 -0.0312,0 -2.0625,0.875 0.4375,1 2.03125,-0.875 0.0312,0 2.375,-0.90625 0.0312,0 2.4375,-0.875 0,0.0312 1.25,-0.40625 -0.34375,-1.03125 z m 57.25,1.875 1.5,0.5 0.0312,0 2.4375,0.875 0.0312,0 2.4375,0.9375 1.71875,0.71875 0.4375,-1 -1.75,-0.71875 -2.46875,-0.96875 -2.5,-0.875 -0.0312,-0.0312 -1.5,-0.5 z m 12.15625,4.78125 1.40625,0.65625 4.59375,2.28125 0.0312,0.0312 1.75,0.9375 0.5,-0.9375 -1.75,-0.96875 -0.0312,-0.0312 -4.625,-2.28125 0,-0.0312 -1.4375,-0.65625 z m 11.59375,6.0313 3.28125,1.9375 4.1875,2.59375 0.5625,-0.9375 -4.1875,-2.59375 -3.3125,-1.9375 z m -380.78125,-0.0625 0,0.0312 -3.4375,1.46875 -0.0312,0 -3.25,1.59375 -0.75,0.40625 0.5,0.96875 0.75,-0.40625 3.21875,-1.5625 0.0312,-0.0312 3.375,-1.4375 0.5,-0.1875 -0.375,-1.03125 z m 530.09375,6.09375 0,0.0312 -0.9375,1.65625 0,0.0312 -0.4375,0.6875 0.9375,0.5625 0.4375,-0.71875 0.96875,-1.71875 0,-0.0312 0.71875,-1.46875 -0.96875,-0.5 z m -462.46875,-0.1875 1.875,1.0625 0.0312,0 4.25,2.625 0.0312,0 1.25,0.8125 0.59375,-0.90625 -1.28125,-0.8125 0,-0.0312 -4.3125,-2.625 -1.90625,-1.09375 z m -80.375,0.625 -0.0312,0 -2.75,1.8125 0,0.0312 -2.59375,1.84375 0,0.0312 -0.0312,0 -0.4375,0.34375 0.65625,0.875 0.46875,-0.375 0,0.0312 2.5625,-1.875 2.71875,-1.78125 0.0312,-0.0312 1.40625,-0.84375 -0.5625,-0.9375 z m 91.46875,6.28125 3.65625,2.5 3.53125,2.46875 0.625,-0.875 -3.53125,-2.5 -3.65625,-2.5 z m 447.25,-0.1875 -1.0625,1.40625 -0.0312,0.0312 -1.21875,1.5 0.0312,0 -1.34375,1.53125 -0.0312,0.0312 -1.46875,1.59375 -0.0312,0.0312 0.78125,0.78125 0.0312,-0.0625 0.0312,0 1.46875,-1.625 0.0312,0 1.34375,-1.59375 0.0312,0 1.21875,-1.53125 1.09375,-1.4375 0.0312,-0.0312 0.34375,-0.53125 -0.875,-0.59375 z m -548.8125,1.4375 -0.0312,0.0312 -2.125,1.9375 -1.96875,1.9375 -0.0312,0 -1.40625,1.46875 0.8125,0.75 1.375,-1.4375 0.0312,-0.0312 1.9375,-1.90625 2.09375,-1.90625 0.0312,0 0.8125,-0.6875 -0.71875,-0.84375 z m 112.3125,6.28125 1.53125,1.09375 5.53125,4.03125 0.65625,-0.90625 -5.5625,-4 0,-0.0312 -1.53125,-1.09375 z m 428.03125,1.65625 -0.0312,0 -1.875,1.65625 -0.0312,0 -2.03125,1.65625 -2.1875,1.625 -0.0312,0 -0.375,0.28125 0.59375,0.90625 0.4375,-0.28125 0,-0.0312 2.21875,-1.625 0,-0.0312 0.0312,0 2.0625,-1.65625 0,-0.0312 1.9375,-1.65625 0.21875,-0.21875 -0.75,-0.78125 z m -549.53125,1.5625 -0.0312,0.0312 -1.375,1.75 -0.0312,0 -1.25,1.6875 -1.125,1.59375 -0.78125,1.15625 0.90625,0.59375 0.78125,-1.125 -0.0312,0 1.125,-1.5625 1.25,-1.65625 0,-0.0312 1.40625,-1.71875 -0.0312,0 0.71875,-0.84375 L 122,935.0625 z m 132.125,4.46875 4.0625,2.9375 3.0625,2.125 0.625,-0.875 -3.03125,-2.15625 -4.09375,-2.9063 z m 406.375,2.0625 -0.0312,0.0312 -2.65625,1.5 -2.84375,1.4375 -1.3125,0.59375 0.4375,1 1.34375,-0.59375 0.0312,-0.0312 2.84375,-1.4375 0.0312,0 0,-0.0312 2.6875,-1.5 0.0312,0 0,-0.0312 0.84375,-0.5 -0.59375,-0.9375 z m -546.0625,4.625 -0.0312,0 -0.875,1.71875 1,0.5 0.84375,-1.6875 0,-0.0312 0.65625,-1.15625 -0.9375,-0.53125 z m 277.59375,-0.1875 -0.0312,0 -3.625,3.125 -0.0312,0.0312 -2.40625,1.9375 0.6875,0.84375 2.4375,-1.9375 0,-0.0312 3.65625,-3.15625 0.0312,0 0.59375,-0.53125 -0.75,-0.8125 z m -127.15625,1.0625 2.375,1.625 4.625,3 0,0.0312 0.3125,0.1875 0.5625,-0.9375 -0.28125,-0.1875 -4.625,-3 -2.375,-1.625 z m 383.90625,0.0937 0,0.0312 -0.0312,0 -3.34375,1.15625 -0.0312,0 -3.53125,1.0625 -0.0312,0 -0.40625,0.125 0.25,1.0625 0.46875,-0.125 3.59375,-1.0625 0.0312,-0.0312 3.375,-1.15625 0.0312,-0.0312 0.90625,-0.34375 -0.40625,-1.03125 z m -46.28125,4.3125 0.84375,0.21875 0,0.0312 2.125,0.5 0.0312,0 0,0.0312 2.15625,0.4375 0.0312,0 2.15625,0.375 0.0312,0 1.25,0.15625 0.15625,-1.0625 -1.25,-0.1875 -0.0312,0 -2.125,-0.34375 -0.0312,0 -2.09375,-0.46875 -0.0312,0 -2.09375,-0.5 -0.0312,0 -0.8125,-0.25 z m 31.6875,-0.3125 0,-0.0312 -4.125,0.65625 -0.0312,0 -1.4375,0.15625 0.125,1.09375 1.46875,-0.15625 4.15625,-0.65625 0.0312,0 3.03125,-0.625 -0.21875,-1.0625 z m -13,1.40625 -2.28125,0.0625 -2.25,-0.0312 -0.0312,0 -1.03125,-0.0625 -0.0625,1.09375 1.0625,0.0625 0.0312,0 2.28125,0.0312 2.3125,-0.0625 0.0312,0 3.09375,-0.1875 -0.0937,-1.09375 z m -240.46875,2.46875 -2,1.375 L 376,958.625 l -0.0312,0 -1.375,0.84375 0.5625,0.9375 1.40625,-0.84375 0,-0.0312 0.0312,0 2.03125,-1.3125 0,-0.0312 0.0312,0 2,-1.375 1.8125,-1.3125 -0.65625,-0.875 z m -10.40625,6.40625 -0.0312,0 -2.21875,1.125 -2.28125,1.0625 -2.125,0.90625 0.4375,1 2.125,-0.90625 0.0312,0 2.28125,-1.0625 0,-0.0312 0.0312,0 2.21875,-1.125 0.0312,0 1.21875,-0.65625 -0.53125,-0.96875 z m -11.71875,4.96875 -0.0312,0 -2.5,0.78125 -2.59375,0.71875 -2.21875,0.53125 0.25,1.0625 2.21875,-0.53125 0.0312,0 2.59375,-0.71875 0.0312,0 2.53125,-0.8125 0.0312,0 1.03125,-0.34375 -0.375,-1.03125 z m -13.34375,3.18745 -2.875,0.375 -0.0312,0 -2.96875,0.28125 -1,0.0937 0.0625,1.0625 1.03125,-0.0625 3,-0.28125 0.0312,0 2.90625,-0.40625 1.78125,-0.28125 -0.1875,-1.09375 z"
         style="font-size:medium;font-style:normal;font-variant:normal;font-weight:normal;font-stretch:normal;text-indent:0;text-align:start;text-decoration:none;line-height:normal;letter-spacing:normal;word-spacing:normal;text-transform:none;direction:ltr;block-progression:tb;writing-mode:lr-tb;text-anchor:start;baseline-shift:baseline;opacity:0.92000002;color:#000000;fill:#ffffff;fill-opacity:1;stroke:none;stroke-width:1.09387398;marker:none;visibility:visible;display:inline;overflow:visible;enable-background:accumulate;font-family:Sans;-inkscape-font-specification:Sans"
         sodipodi:nodetypes="cccccccccccccccccccccccccccccccccccccccccccccccccccccccccccccccccccccccccccccccccccccccccccccccccccccccccccccccccccccccccccccccccccccccccccccccccccccccccccccccccccccccccccccccccccccccccccccccccccccccccccccccccccccccccccccccccccccccccccccccccccccccccccccccccccccccccccccccccccccccccccccccccccccccccccccccccccccccccccccccccccccccccccccccccccccccccccccccccccccccccccccccccccccccccccccccccccccccccccccccccccccccccccccccccccccccccccccccccccccc" />
      <path
         inkscape:connector-curvature="0"
         style="fill:#ffffff;fill-rule:evenodd;stroke:#ffffff;stroke-width:0.87509918pt"
         d="m 686.59056,912.56318 1.10229,8.67346 -8.06801,-3.38927 6.96572,-5.28419 z"
         id="path4747" />
    </g>
  </g>
</svg>
