<?xml version="1.0" encoding="UTF-8" standalone="no"?>
<!-- Generator: Adobe Illustrator 18.0.0, SVG Export Plug-In . SVG Version: 6.00 Build 0)  -->

<svg
   xmlns:dc="http://purl.org/dc/elements/1.1/"
   xmlns:cc="http://creativecommons.org/ns#"
   xmlns:rdf="http://www.w3.org/1999/02/22-rdf-syntax-ns#"
   xmlns:svg="http://www.w3.org/2000/svg"
   xmlns="http://www.w3.org/2000/svg"
   xmlns:xlink="http://www.w3.org/1999/xlink"
   xmlns:sodipodi="http://sodipodi.sourceforge.net/DTD/sodipodi-0.dtd"
   xmlns:inkscape="http://www.inkscape.org/namespaces/inkscape"
   version="1.1"
   id="Capa_1"
   x="0px"
   y="0px"
   viewBox="0 0 103.3905 103.3905"
   xml:space="preserve"
   width="128"
   height="128"
   inkscape:version="0.48.5 r10040"
   sodipodi:docname="icon.svg"
   inkscape:export-filename="/var/svn-repos/wp-multi-step-checkout/assets/icon-128x128.png"
   inkscape:export-xdpi="90"
   inkscape:export-ydpi="90"><metadata
     id="metadata5634"><rdf:RDF><cc:Work
         rdf:about=""><dc:format>image/svg+xml</dc:format><dc:type
           rdf:resource="http://purl.org/dc/dcmitype/StillImage" /><dc:title></dc:title></cc:Work></rdf:RDF></metadata><defs
     id="defs5632"><linearGradient
       id="linearGradient4690"><stop
         style="stop-color:#5287df;stop-opacity:1;"
         offset="0"
         id="stop4692" /><stop
         style="stop-color:#60b7fe;stop-opacity:1;"
         offset="1"
         id="stop4694" /></linearGradient><linearGradient
       inkscape:collect="always"
       xlink:href="#linearGradient4690"
       id="linearGradient4716"
       x1="53.70594"
       y1="103.21651"
       x2="53.70594"
       y2="0.186571"
       gradientUnits="userSpaceOnUse"
       gradientTransform="matrix(0.99636349,0,0,0.99636345,0.1879906,0.1879873)" /></defs><sodipodi:namedview
     pagecolor="#ffffff"
     bordercolor="#666666"
     borderopacity="1"
     objecttolerance="10"
     gridtolerance="10"
     guidetolerance="10"
     inkscape:pageopacity="0"
     inkscape:pageshadow="2"
     inkscape:window-width="1364"
     inkscape:window-height="747"
     id="namedview5630"
     showgrid="false"
     inkscape:zoom="2"
     inkscape:cx="54.864424"
     inkscape:cy="61.028924"
     inkscape:window-x="0"
     inkscape:window-y="19"
     inkscape:window-maximized="1"
     inkscape:current-layer="Capa_1" /><g
     id="g5600"
     transform="translate(0,-310.1715)" /><g
     id="g5602"
     transform="translate(0,-310.1715)" /><g
     id="g5604"
     transform="translate(0,-310.1715)" /><g
     id="g5606"
     transform="translate(0,-310.1715)" /><g
     id="g5608"
     transform="translate(0,-310.1715)" /><g
     id="g5610"
     transform="translate(0,-310.1715)" /><g
     id="g5612"
     transform="translate(0,-310.1715)" /><g
     id="g5614"
     transform="translate(0,-310.1715)" /><g
     id="g5616"
     transform="translate(0,-310.1715)" /><g
     id="g5618"
     transform="translate(0,-310.1715)" /><g
     id="g5620"
     transform="translate(0,-310.1715)" /><g
     id="g5622"
     transform="translate(0,-310.1715)" /><g
     id="g5624"
     transform="translate(0,-310.1715)" /><g
     id="g5626"
     transform="translate(0,-310.1715)" /><g
     id="g5628"
     transform="translate(0,-310.1715)" /><g
     transform="matrix(0.19763007,0,0,0.19763007,-49.412332,16.862342)"
     id="g5908"
     style="fill:#0000ff" /><g
     transform="matrix(0.19763007,0,0,0.19763007,-49.412332,16.862342)"
     id="g5910"
     style="fill:#0000ff" /><g
     transform="matrix(0.19763007,0,0,0.19763007,-49.412332,16.862342)"
     id="g5912"
     style="fill:#0000ff" /><g
     transform="matrix(0.19763007,0,0,0.19763007,-49.412332,16.862342)"
     id="g5914"
     style="fill:#0000ff" /><g
     transform="matrix(0.19763007,0,0,0.19763007,-49.412332,16.862342)"
     id="g5916"
     style="fill:#0000ff" /><g
     transform="matrix(0.19763007,0,0,0.19763007,-49.412332,16.862342)"
     id="g5918"
     style="fill:#0000ff" /><g
     transform="matrix(0.19763007,0,0,0.19763007,-49.412332,16.862342)"
     id="g5920"
     style="fill:#0000ff" /><g
     transform="matrix(0.19763007,0,0,0.19763007,-49.412332,16.862342)"
     id="g5922"
     style="fill:#0000ff" /><g
     transform="matrix(0.19763007,0,0,0.19763007,-49.412332,16.862342)"
     id="g5924"
     style="fill:#0000ff" /><g
     transform="matrix(0.19763007,0,0,0.19763007,-49.412332,16.862342)"
     id="g5926"
     style="fill:#0000ff" /><g
     transform="matrix(0.19763007,0,0,0.19763007,-49.412332,16.862342)"
     id="g5928"
     style="fill:#0000ff" /><g
     transform="matrix(0.19763007,0,0,0.19763007,-49.412332,16.862342)"
     id="g5930"
     style="fill:#0000ff" /><g
     transform="matrix(0.19763007,0,0,0.19763007,-49.412332,16.862342)"
     id="g5932"
     style="fill:#0000ff" /><g
     transform="matrix(0.19763007,0,0,0.19763007,-49.412332,16.862342)"
     id="g5934"
     style="fill:#0000ff" /><g
     transform="matrix(0.19763007,0,0,0.19763007,-49.412332,16.862342)"
     id="g5936"
     style="fill:#0000ff" /><rect
     style="color:#000000;fill:#017ca7;fill-opacity:1;fill-rule:nonzero;stroke:#ffffff;stroke-width:0.55723983;stroke-linecap:square;stroke-linejoin:round;stroke-miterlimit:4;stroke-opacity:1;stroke-dasharray:4.45791859, 2.2289593;stroke-dashoffset:2.78619938;marker:none;visibility:visible;display:inline;overflow:visible;enable-background:accumulate"
     id="rect6053"
     width="102.83326"
     height="102.83326"
     x="0.076685645"
     y="0.27862021" /><rect
     style="color:#000000;fill:url(#linearGradient4716);fill-opacity:1;fill-rule:nonzero;stroke:#000000;stroke-width:0;stroke-linecap:square;stroke-linejoin:round;stroke-miterlimit:4;stroke-opacity:1;stroke-dasharray:none;stroke-dashoffset:0;marker:none;visibility:visible;display:inline;overflow:visible;enable-background:accumulate"
     id="rect3380"
     width="103.3905"
     height="103.3905"
     x="-1.4648438e-06"
     y="-1.4648438e-06" /><g
     id="g6587"
     transform="translate(0.39000263,0.07636358)"><g
       transform="matrix(0.64288536,-1.0238606,1.0238606,0.64288536,27.115885,152.06761)"
       id="g6569"><path
         style="fill:#ffffff"
         inkscape:connector-curvature="0"
         id="path5592"
         d="m 108.37315,-14.179515 c -1.20087,-0.846774 -2.71092,-0.976254 -4.03883,-0.346093 l -3.46772,1.645367 c -2.592442,1.230191 -4.4418,3.5467075 -5.073861,6.3553546 -0.353965,1.5731626 -0.874734,2.7897815 -1.547376,3.615926 -0.26303,0.3228845 -0.264252,0.7858348 -0.0031,1.1102122 l 3.68718,4.5805078 c 0.172232,0.2138991 0.427391,0.3291277 0.687572,0.3291277 0.137351,0 0.275924,-0.03203 0.404589,-0.098535 l 2.858046,-1.4769352 c 4.60114,-2.37772719 7.65803,-6.8738154 8.17689,-12.0272091 0.14713,-1.462277 -0.48208,-2.840813 -1.68337,-3.687723 z m -0.0723,3.511012 c -0.45874,4.5574353 -3.16207,8.5335695 -7.23131,10.63645815 L 98.851794,1.1139982 96.039347,-2.3799131 c 0.637897,-0.9782897 1.133014,-2.2383399 1.474899,-3.7574848 0.512082,-2.2760709 2.009783,-4.1527101 4.108734,-5.1487791 l 3.46772,-1.645367 c 0.74485,-0.353422 1.59189,-0.280946 2.26575,0.194083 0.674,0.475166 1.02715,1.24865 0.94436,2.068958 z" /><path
         style="fill:#ffffff"
         inkscape:connector-curvature="0"
         id="path5594"
         d="m 93.488845,-1.6493174 c -0.290718,-0.3561365 -0.806058,-0.4294268 -1.184317,-0.1684319 l -2.288286,1.57777716 c -0.948974,0.6544552 -1.575606,1.64129544 -1.764396,2.77865224 -0.188926,1.1372211 0.0855,2.2733564 0.772127,3.1993929 0.682821,0.9207433 1.684591,1.5122231 2.82059,1.6654541 0.192048,0.025923 0.383553,0.038817 0.573972,0.038817 0.935266,0 1.837279,-0.3098551 2.587147,-0.8971275 l 2.445589,-1.9155912 c 0.186619,-0.1461734 0.306598,-0.361294 0.332792,-0.596773 0.0262,-0.2356147 -0.0433,-0.4717723 -0.193269,-0.655541 L 93.488845,-1.6493174 z M 93.917729,5.155958 C 93.39316,5.5666551 92.740198,5.7439091 92.080585,5.6548749 91.420294,5.5658408 90.838179,5.222055 90.44119,4.6869001 90.042165,4.1487594 89.882691,3.4883324 89.992355,2.8274982 90.102154,2.1663926 90.466299,1.5929639 91.017876,1.2125329 l 1.618358,-1.11591257 3.018475,3.69871697 -1.73698,1.3606207 z" /></g><g
       transform="matrix(1.1856268,-0.23639227,0.23639227,1.1856268,-11.70297,30.796787)"
       id="g6573"><path
         style="fill:#ffffff"
         inkscape:connector-curvature="0"
         id="path5596"
         d="m 77.93963,-3.5024761 c -5.153258,0.5188682 -9.649482,3.57561639 -12.027073,8.1768897 l -1.4768,2.8580501 c -0.192591,0.372559 -0.09623,0.8291304 0.230457,1.0921612 l 4.580372,3.6871801 c 0.16151,0.130023 0.357358,0.195034 0.553206,0.195034 0.197477,0 0.394954,-0.0661 0.557007,-0.198155 0.82628,-0.672778 2.042899,-1.193411 3.615926,-1.547511 2.808782,-0.632061 5.125299,-2.4814197 6.355354,-5.0738603 l 1.645367,-3.4674454 c 0.630161,-1.32777581 0.500682,-2.83769163 -0.346093,-4.0389739 -0.846774,-1.2012822 -2.223546,-1.8302215 -3.687723,-1.6833695 z m 2.440024,4.9658247 -1.645367,3.4674454 c -0.99607,2.0990883 -2.872709,3.5967891 -5.148779,4.1090068 -1.519145,0.3418857 -2.779331,0.8367309 -3.757621,1.4747632 L 66.333976,7.7021172 67.479883,5.4844071 c 2.102753,-4.0692401 6.079023,-6.7724305 10.636458,-7.2313092 0.819901,-0.082791 1.593928,0.2703598 2.068958,0.94435908 0.475165,0.67386355 0.547777,1.52090936 0.194355,2.26589162 z" /><path
         style="fill:#ffffff"
         inkscape:connector-curvature="0"
         id="path5598"
         d="m 61.710037,17.529939 c 0.735074,0.545198 1.60275,0.830352 2.498113,0.830352 0.232493,0 0.466886,-0.01927 0.701415,-0.05823 1.137357,-0.188791 2.123926,-0.815423 2.778517,-1.764396 l 1.577777,-2.288151 c 0.260859,-0.378395 0.187569,-0.893734 -0.168568,-1.184317 L 64.070934,8.9632532 C 63.887437,8.8134152 63.651551,8.743518 63.415529,8.7699839 c -0.235479,0.026195 -0.4506,0.1461735 -0.596773,0.3327923 l -1.915455,2.4455888 c -0.706845,0.90242 -1.011678,2.024984 -0.858447,3.161119 0.153231,1.136135 0.744439,2.137633 1.665183,2.820455 z m 0.582115,-4.893756 1.360485,-1.73698 3.698717,3.018474 -1.116049,1.618358 c -0.380295,0.551578 -0.953724,0.915858 -1.614694,1.025522 -0.660834,0.109392 -1.321396,-0.04968 -1.859537,-0.448835 -0.535019,-0.396854 -0.878941,-0.979105 -0.967975,-1.639396 -0.08903,-0.660291 0.08822,-1.312575 0.499053,-1.837143 z" /></g></g><g
     transform="matrix(0.08840763,0,0,0.08840763,8.077383,42.565676)"
     id="g5896"
     style="fill:#ffffff"><g
       id="g5898"
       style="fill:#ffffff"><g
         id="g5900"
         style="fill:#ffffff"><path
           inkscape:connector-curvature="0"
           d="M 187.57,359.458 H 548.465 L 612.321,131.524 H 518.348 L 484.608,27.304 343.9,72.916 l 19.244,58.608 h -6.623 l -34.74,-104.22 -140.709,45.612 19.244,58.608 H 125.088 L 109.468,69.042 C 101.595,37.801 74.353,15.683 42.987,15.683 H 0 V 41.8 h 42.987 c 19.494,0 36.489,12.996 41.738,32.616 l 69.105,270.421 c -14.246,10.247 -23.618,26.992 -23.618,46.112 0,31.241 26.117,57.358 57.358,57.358 H 539.343 V 422.19 H 187.57 c -16.995,0 -31.241,-14.371 -31.241,-31.241 0.001,-17.12 14.371,-31.491 31.241,-31.491 l 0,0 z M 467.739,59.795 491.232,130.15 H 389.637 L 375.266,89.787 467.739,59.795 z m -162.828,0 23.493,70.355 H 226.809 L 212.438,89.787 304.911,59.795 z m 273.546,96.472 -49.486,177.199 H 177.198 l -45.612,-177.198 446.871,-0.001 0,0 z"
           id="path5902"
           style="fill:#ffffff" /><path
           inkscape:connector-curvature="0"
           d="m 424.751,487.171 c -29.991,0 -54.734,24.743 -54.734,54.734 0,29.991 24.743,54.734 54.734,54.734 31.241,0 54.734,-24.743 54.734,-54.734 10e-4,-29.991 -24.742,-54.734 -54.734,-54.734 z m 0,84.725 c -16.995,0 -29.991,-14.371 -29.991,-29.991 0,-16.995 14.371,-29.991 29.991,-29.991 16.995,0 29.991,12.996 29.991,29.991 10e-4,16.995 -14.37,29.991 -29.991,29.991 z"
           id="path5904"
           style="fill:#ffffff" /><path
           inkscape:connector-curvature="0"
           d="m 224.06,487.171 c -29.991,0 -54.734,24.743 -54.734,54.734 0,29.991 24.743,54.734 54.734,54.734 29.991,0 54.734,-24.743 54.734,-54.734 0,-29.991 -24.743,-54.734 -54.734,-54.734 z m 0,84.725 c -16.995,0 -29.991,-14.371 -29.991,-29.991 0,-16.995 14.371,-29.991 29.991,-29.991 15.62,0 29.991,12.996 29.991,29.991 0,16.995 -14.371,29.991 -29.991,29.991 z"
           id="path5906"
           style="fill:#ffffff" /></g></g></g></svg>